# File created by Blade
# Date/Time:  Wed Jan 21 16:33:30 2015
# Frame Rate: 120.000 fps
#------------------------------------------------------
:FULLY-SPECIFIED
:DEGREES
1405
root 20.206551 35.530419 -24.811865 -5.268133 174.877972 -0.796128
Spine 5.871616 7.973058 -1.832826
Head 14.135738 -12.918202 4.747549
LeftShoulder 1.956656 -18.008568 0.893509
LeftArm 14.314658 44.203469 -71.209754
LeftForeArm -0.102724 -0.000000 39.813703
LeftHand -2.095550 0.000000 1.340990
LeftHandThumb1 -26.253704 0.000000 33.147579
RightShoulder 0.977926 -11.341359 9.059835
RightArm 50.341490 -21.402690 55.564488
RightForeArm -22.902808 -0.000000 43.439967
RightHand -4.897715 0.000000 -8.347705
RightHandThumb1 -24.326973 -0.000000 -32.862282
LeftUpLeg 9.336116 12.810329 -1.130904
LeftLeg -1.088798 -0.000000 0.000000
LeftFoot -20.020134 27.025280 -9.024617
LeftToeBase 23.142881 -0.000000 -0.000000
RightUpLeg -9.604520 -20.407516 -4.226357
RightLeg 40.606551 -0.000000 -0.000000
RightFoot -26.637498 -37.213262 19.574720
RightToeBase 9.758247 -0.000000 -0.000000
1406
root 20.221880 35.526907 -24.848901 -5.376213 175.038130 -0.870220
Spine 5.486111 8.148237 -2.126022
Head 14.101599 -13.682625 4.692112
LeftShoulder 1.866841 -17.939942 0.864798
LeftArm 14.183232 44.489588 -71.364196
LeftForeArm 0.240749 -0.000000 41.063575
LeftHand -2.077471 -0.000000 1.768899
LeftHandThumb1 -26.253704 0.000000 33.147579
RightShoulder 0.946559 -11.259390 8.893193
RightArm 51.368512 -22.577520 54.911138
RightForeArm -23.400042 -0.000000 44.679286
RightHand -4.850837 -0.000000 -8.053328
RightHandThumb1 -24.326973 -0.000000 -32.862282
LeftUpLeg 9.321105 12.756341 -1.141486
LeftLeg -0.757264 -0.000000 0.000000
LeftFoot -20.216782 26.944747 -9.151783
LeftToeBase 23.254918 -0.000000 -0.000000
RightUpLeg -9.115172 -20.443921 -3.947824
RightLeg 40.523858 -0.000000 -0.000000
RightFoot -26.120867 -36.879587 19.913845
RightToeBase 10.809451 -0.000000 -0.000000
1407
root 20.246378 35.521769 -24.882785 -5.438929 175.107309 -0.943767
Spine 5.034042 8.420079 -2.439802
Head 14.108573 -14.461511 4.682362
LeftShoulder 1.799088 -17.773759 0.824033
LeftArm 14.116245 44.812026 -71.330524
LeftForeArm 0.379624 -0.000000 42.474110
LeftHand -2.153071 0.000000 2.205645
LeftHandThumb1 -26.253704 0.000000 33.147579
RightShoulder 0.910141 -11.070752 8.699226
RightArm 52.251978 -23.800227 54.341024
RightForeArm -23.916116 0.000000 45.880078
RightHand -4.584314 -0.000000 -7.811951
RightHandThumb1 -24.326973 -0.000000 -32.862282
LeftUpLeg 9.260899 12.821983 -1.136144
LeftLeg -0.416640 -0.000000 0.000000
LeftFoot -20.397805 26.854754 -9.259121
LeftToeBase 23.155612 -0.000000 -0.000000
RightUpLeg -8.638541 -20.465929 -3.634857
RightLeg 40.172197 -0.000000 -0.000000
RightFoot -25.506788 -36.519560 20.143478
RightToeBase 11.712189 -0.000000 -0.000000
1408
root 20.258567 35.514263 -24.919101 -5.455217 175.300628 -1.048335
Spine 4.519465 8.495870 -2.757997
Head 14.109134 -15.172658 4.653780
LeftShoulder 1.629764 -17.433573 0.729958
LeftArm 14.307307 45.360112 -70.977324
LeftForeArm 0.642593 0.000000 43.945367
LeftHand -2.310851 -0.000000 2.949267
LeftHandThumb1 -26.253704 0.000000 33.147579
RightShoulder 0.850368 -11.012222 8.476095
RightArm 53.313183 -24.988225 53.675359
RightForeArm -24.210416 -0.000000 47.075275
RightHand -4.337557 -0.000000 -7.206835
RightHandThumb1 -24.326973 -0.000000 -32.862282
LeftUpLeg 9.112451 12.744156 -1.223905
LeftLeg -0.044926 -0.000000 0.000000
LeftFoot -20.641203 26.848780 -9.437106
LeftToeBase 23.144073 -0.000000 -0.000000
RightUpLeg -8.136814 -20.766231 -3.414884
RightLeg 39.559885 -0.000000 -0.000000
RightFoot -25.101618 -35.931762 20.535949
RightToeBase 13.407686 -0.000000 -0.000000
1409
root 20.269772 35.506438 -24.957445 -5.458054 175.470656 -1.186808
Spine 3.972195 8.543810 -3.130257
Head 14.175246 -15.797939 4.603000
LeftShoulder 1.563125 -17.316765 0.683769
LeftArm 13.886540 45.537010 -71.291786
LeftForeArm 0.794924 -0.000000 45.232257
LeftHand -2.377160 -0.000000 3.179707
LeftHandThumb1 -26.253704 0.000000 33.147579
RightShoulder 0.817793 -10.824611 8.267238
RightArm 54.140626 -26.182413 53.114741
RightForeArm -25.180275 -0.000000 48.395295
RightHand -4.309849 -0.000000 -6.448403
RightHandThumb1 -24.326973 -0.000000 -32.862282
LeftUpLeg 8.941758 12.689310 -1.339399
LeftLeg 0.364462 -0.000000 -0.000000
LeftFoot -20.869789 26.778244 -9.599570
LeftToeBase 23.071257 -0.000000 -0.000000
RightUpLeg -7.598202 -21.108231 -3.250852
RightLeg 38.650447 -0.000000 -0.000000
RightFoot -25.000756 -35.528214 21.228219
RightToeBase 13.578176 -0.000000 -0.000000
1410
root 20.285732 35.497046 -24.998104 -5.438106 175.585734 -1.348131
Spine 3.393091 8.623435 -3.546222
Head 14.232007 -16.460011 4.556042
LeftShoulder 1.475552 -17.256417 0.648578
LeftArm 13.331478 45.851046 -71.622096
LeftForeArm 0.995232 -0.000000 46.610773
LeftHand -2.405898 0.000000 3.656849
LeftHandThumb1 -26.253704 0.000000 33.147579
RightShoulder 0.725193 -10.825550 8.104261
RightArm 55.270441 -27.335697 52.303849
RightForeArm -25.892007 -0.000000 49.615381
RightHand -4.076790 -0.000000 -5.853757
RightHandThumb1 -24.326973 -0.000000 -32.862282
LeftUpLeg 8.786148 12.608567 -1.484222
LeftLeg 0.708944 -0.000000 -0.000000
LeftFoot -21.089168 26.781185 -9.792496
LeftToeBase 23.125105 -0.000000 -0.000000
RightUpLeg -7.040922 -21.449872 -3.112228
RightLeg 37.479373 -0.000000 -0.000000
RightFoot -26.242598 -35.695343 22.712232
RightToeBase 12.361284 -0.000000 -0.000000
1411
root 20.298267 35.487219 -25.043176 -5.443737 175.734125 -1.498728
Spine 2.844916 8.613767 -3.922755
Head 14.326013 -17.142208 4.447675
LeftShoulder 1.298402 -16.956757 0.564679
LeftArm 13.205849 46.216046 -71.580669
LeftForeArm 1.107019 -0.000000 47.857830
LeftHand -2.340896 -0.000000 4.026112
LeftHandThumb1 -26.253704 0.000000 33.147579
RightShoulder 0.651162 -10.793365 7.945616
RightArm 56.389700 -28.499100 51.333327
RightForeArm -26.402739 -0.000000 50.927721
RightHand -3.986569 -0.000000 -5.244789
RightHandThumb1 -24.326973 -0.000000 -32.862282
LeftUpLeg 8.624215 12.632490 -1.596880
LeftLeg 1.141486 -0.000000 -0.000000
LeftFoot -21.314111 26.641287 -9.930534
LeftToeBase 23.071834 -0.000000 -0.000000
RightUpLeg -6.359785 -21.874289 -3.021889
RightLeg 35.956101 -0.000000 -0.000000
RightFoot -28.047364 -36.946650 23.740476
RightToeBase 12.305337 -0.000000 -0.000000
1412
root 20.310310 35.475111 -25.083964 -5.455949 175.875578 -1.704115
Spine 2.315876 8.597436 -4.350190
Head 14.413895 -17.800951 4.326041
LeftShoulder 1.238935 -16.780750 0.445687
LeftArm 12.746095 46.545967 -71.729074
LeftForeArm 1.203719 -0.000000 49.206278
LeftHand -2.529113 0.000000 4.417573
LeftHandThumb1 -26.253704 0.000000 33.147579
RightShoulder 0.621111 -10.823036 7.767864
RightArm 57.362061 -29.464028 50.599090
RightForeArm -27.298882 -0.000000 52.417594
RightHand -3.860035 0.000000 -4.298854
RightHandThumb1 -24.326973 -0.000000 -32.862282
LeftUpLeg 8.484191 12.497665 -1.791121
LeftLeg 1.521491 -0.000000 -0.000000
LeftFoot -21.499689 26.669026 -10.059383
LeftToeBase 22.974894 -0.000000 -0.000000
RightUpLeg -5.648004 -22.260509 -2.995434
RightLeg 34.258092 -0.000000 -0.000000
RightFoot -29.734993 -38.698804 24.114657
RightToeBase 14.142165 -0.000000 -0.000000
1413
root 20.328354 35.465330 -25.132922 -5.562137 175.937887 -1.879257
Spine 1.900406 8.603849 -4.722267
Head 14.509242 -18.375569 4.194952
LeftShoulder 1.123918 -16.563732 0.308007
LeftArm 12.465920 46.982770 -71.670677
LeftForeArm 1.319506 -0.000000 50.470086
LeftHand -2.569935 0.000000 4.510071
LeftHandThumb1 -26.253704 0.000000 33.147579
RightShoulder 0.543778 -10.973343 7.631245
RightArm 58.723646 -30.448410 49.160570
RightForeArm -27.571915 -0.000000 53.972283
RightHand -3.764769 -0.000000 -3.514711
RightHandThumb1 -24.326973 -0.000000 -32.862282
LeftUpLeg 8.511289 12.311294 -1.932943
LeftLeg 1.804440 -0.000000 -0.000000
LeftFoot -21.722338 26.758107 -10.341662
LeftToeBase 22.874109 -0.000000 -0.000000
RightUpLeg -4.795071 -22.504674 -2.995817
RightLeg 32.462234 -0.000000 -0.000000
RightFoot -31.561312 -40.052431 25.161413
RightToeBase 14.857245 -0.000000 -0.000000
1414
root 20.347948 35.451102 -25.175538 -5.619675 175.953778 -2.056507
Spine 1.459028 8.601535 -5.085560
Head 14.573006 -18.941603 4.041903
LeftShoulder 0.987577 -16.342432 0.169764
LeftArm 12.098828 47.370783 -71.688378
LeftForeArm 1.353387 0.000000 51.785893
LeftHand -2.806742 -0.000000 4.890680
LeftHandThumb1 -26.253704 0.000000 33.147579
RightShoulder 0.544956 -11.075709 7.469616
RightArm 59.747546 -31.274468 48.213662
RightForeArm -28.268599 -0.000000 55.562028
RightHand -3.425731 -0.000000 -2.430999
RightHandThumb1 -24.326973 -0.000000 -32.862282
LeftUpLeg 8.332920 12.641185 -2.005617
LeftLeg 2.399246 -0.000000 -0.000000
LeftFoot -22.031498 26.419839 -10.488522
LeftToeBase 22.885276 -0.000000 -0.000000
RightUpLeg -4.007095 -22.583763 -3.001089
RightLeg 30.731268 -0.000000 -0.000000
RightFoot -33.266420 -40.944472 26.320625
RightToeBase 14.895580 -0.000000 -0.000000
1415
root 20.364068 35.435807 -25.214969 -5.704056 175.982838 -2.216148
Spine 1.085970 8.593407 -5.388580
Head 14.559716 -19.560623 3.839425
LeftShoulder 0.916759 -16.180018 -0.016043
LeftArm 11.665528 47.765636 -71.850778
LeftForeArm 1.481692 -0.000000 52.855191
LeftHand -2.802499 -0.000000 5.590838
LeftHandThumb1 -26.253704 0.000000 33.147579
RightShoulder 0.499055 -11.184777 7.331488
RightArm 60.809351 -32.050024 47.178836
RightForeArm -28.856109 -0.000000 57.221109
RightHand -3.334079 -0.000000 -1.381600
RightHandThumb1 -24.326973 -0.000000 -32.862282
LeftUpLeg 8.269561 12.589617 -2.130468
LeftLeg 2.794540 -0.000000 -0.000000
LeftFoot -22.295229 26.446007 -10.686918
LeftToeBase 22.794965 -0.000000 -0.000000
RightUpLeg -3.176990 -22.788022 -3.038562
RightLeg 28.988375 -0.000000 -0.000000
RightFoot -34.769723 -41.629575 27.233289
RightToeBase 14.953551 -0.000000 -0.000000
